<svg width="44" height="44" viewBox="0 0 44 44" fill="none" xmlns="http://www.w3.org/2000/svg">
<path d="M18.0862 13.9385C21.5433 11.8697 28.6692 7.91258 29.5189 8.63086C31.4788 9.93748 30.826 22.5957 30.4993 23.9023C30.237 24.9477 25.0002 26.6782 22.4144 27.4131V23.9023L26.4974 22.5957C26.2252 20.037 25.5503 14.9025 25.0276 14.8369C24.505 14.7716 23.0677 16.3346 22.4144 17.124C21.3038 23.7876 20.9719 32.4218 20.9446 35.9062C22.3057 36.6685 25.1583 38.1934 25.681 38.1934C26.2036 38.1929 26.8785 34.1648 27.1507 32.1504L22.0872 31.0879V28.2305C24.2104 28.8021 28.6692 30.0268 29.5189 30.3535C30.3679 30.6801 30.5264 31.3058 30.4993 31.5781C30.091 33.0208 29.1106 36.2982 28.4573 37.8662C27.6407 39.8261 26.9875 40.806 25.0276 40.8877C23.4597 40.953 19.7467 39.3362 18.0862 38.5195V13.9385ZM29.3558 9.20117C28.9637 9.00553 28.0493 9.66373 27.6409 10.0176C27.886 9.93593 28.4903 9.85501 28.9476 10.1816C29.4047 10.5082 29.6822 11.2425 29.764 11.5693C29.8456 11.2421 29.8457 9.44611 29.3558 9.20117Z" fill="#F4540D"/>
<path d="M20.9915 6.67188C20.9603 6.76765 20.9437 6.87036 20.9437 6.97656C20.9439 7.51749 21.3822 7.95589 21.9232 7.95605C22.3136 7.95605 22.6494 7.72696 22.8069 7.39648C23.071 7.73033 23.2307 8.15072 23.2308 8.60938C23.2308 9.69175 22.3532 10.5692 21.2708 10.5693C20.1884 10.5693 19.3109 9.69182 19.3109 8.60938C19.3111 7.62202 20.0416 6.80747 20.9915 6.67188Z" fill="white"/>
<path d="M24.5887 5.0332C24.5664 5.10131 24.5516 5.17345 24.5516 5.24902C24.5517 5.63227 24.8627 5.94331 25.246 5.94336C25.5225 5.94336 25.7584 5.77989 25.87 5.5459C26.0575 5.78258 26.1707 6.08082 26.1708 6.40625C26.1708 7.17282 25.5496 7.79466 24.7831 7.79492C24.0164 7.79492 23.3944 7.17298 23.3944 6.40625C23.3945 5.70546 23.914 5.1276 24.5887 5.0332Z" fill="white"/>
<path d="M33.6833 6.0957C36.1333 2.25752 38.094 1.68604 38.4207 2.0127C38.7466 2.33979 36.869 4.29942 38.2566 5.2793C39.6449 6.25926 40.87 3.40125 41.115 3.80957C41.36 4.46293 41.4416 6.09634 39.8083 9.03613C38.1097 12.0412 35.4527 12.792 34.3367 12.792C33.422 14.0986 32.1595 14.9161 31.6423 15.1611V12.792C32.2302 12.3999 32.7036 11.8123 32.8669 11.5674C32.5675 10.5601 32.3115 8.05558 33.6833 6.0957ZM36.7048 3.40137C36.2148 3.8642 34.8544 5.06264 34.0925 6.58594C33.4392 7.89256 33.2759 9.20008 33.4392 9.6084C33.8203 8.54679 35.0063 5.81859 36.7048 3.40137Z" fill="#F4540D"/>
<path d="M8.12286 6.10059C8.61335 5.7744 10.9814 6.83697 12.6961 12.3076C14.4105 17.7775 12.7787 20.3909 12.533 20.8818C12.4106 21.1267 12.5328 21.2902 12.6961 21.5352C13.676 23.0049 17.1325 23.4408 18.2488 23.332V25.9453C14.7212 25.9452 12.0975 24.5839 11.2264 23.9033C11.2538 23.794 11.3736 23.4458 11.6346 22.9238C12.0266 22.1399 11.5796 22.1616 11.3074 22.2705C7.061 24.5567 3.05926 17.8603 2.81427 13.5322C2.56929 9.20411 3.05964 7.32617 3.54962 7.32617C3.94159 7.32619 4.1485 7.76173 4.20294 7.97949C5.59118 11.1642 6.97909 11.1637 7.79572 10.0205C8.48028 9.06211 7.63288 6.42724 8.12286 6.10059ZM3.79474 10.5098C3.73966 9.85692 3.58725 9.62015 3.46857 10.5098C3.30525 11.7347 3.3428 12.9618 3.79474 14.4297C4.22317 15.8211 4.53004 16.4714 5.59161 17.6963C6.50733 18.7528 6.43512 18.0502 6.1629 17.6963C5.99936 17.4781 5.49258 16.6178 4.77423 14.9199C4.05569 13.2214 3.84918 11.4625 3.79474 10.5098Z" fill="#F4540D"/>
</svg>
